<svg width="164" height="53" viewBox="0 0 164 53" fill="none" xmlns="http://www.w3.org/2000/svg">
<path d="M46.152 37V15.1818H54.5043C56.081 15.1818 57.3913 15.4304 58.4354 15.9276C59.4865 16.4176 60.2713 17.0888 60.7898 17.9411C61.3153 18.7933 61.5781 19.7592 61.5781 20.8388C61.5781 21.7266 61.4077 22.4865 61.0668 23.1186C60.7259 23.7436 60.2678 24.2514 59.6925 24.642C59.1172 25.0327 58.4744 25.3132 57.7642 25.4837V25.6967C58.5384 25.7393 59.2805 25.9773 59.9908 26.4105C60.7081 26.8366 61.294 27.4403 61.7486 28.2216C62.2031 29.0028 62.4304 29.9474 62.4304 31.0554C62.4304 32.1847 62.157 33.2003 61.6101 34.1023C61.0632 34.9972 60.2393 35.7038 59.1385 36.2223C58.0376 36.7408 56.6527 37 54.9837 37H46.152ZM50.1044 33.6974H54.3551C55.7898 33.6974 56.8232 33.424 57.4553 32.8771C58.0945 32.3232 58.4141 31.6129 58.4141 30.7464C58.4141 30.1001 58.2543 29.5178 57.9347 28.9993C57.6151 28.4737 57.1605 28.0618 56.571 27.7635C55.9815 27.4581 55.2784 27.3054 54.4616 27.3054H50.1044V33.6974ZM50.1044 24.4609H54.0142C54.696 24.4609 55.3104 24.3366 55.8572 24.0881C56.4041 23.8324 56.8338 23.4737 57.1463 23.0121C57.4659 22.5433 57.6257 21.9893 57.6257 21.3501C57.6257 20.505 57.3274 19.8089 56.7308 19.2621C56.1413 18.7152 55.2642 18.4418 54.0994 18.4418H50.1044V24.4609ZM65.4733 37V20.6364H69.3299V37H65.4733ZM67.4123 18.3139C66.8015 18.3139 66.2759 18.1115 65.8355 17.7067C65.3952 17.2947 65.175 16.8011 65.175 16.2259C65.175 15.6435 65.3952 15.1499 65.8355 14.745C66.2759 14.3331 66.8015 14.1271 67.4123 14.1271C68.0301 14.1271 68.5557 14.3331 68.989 14.745C69.4293 15.1499 69.6495 15.6435 69.6495 16.2259C69.6495 16.8011 69.4293 17.2947 68.989 17.7067C68.5557 18.1115 68.0301 18.3139 67.4123 18.3139ZM80.1871 43.4773C78.8021 43.4773 77.6125 43.2891 76.6182 42.9126C75.6239 42.5433 74.8249 42.0462 74.2212 41.4212C73.6175 40.7962 73.1984 40.1037 72.9641 39.3438L76.4371 38.5021C76.5933 38.8217 76.8206 39.1378 77.1189 39.4503C77.4172 39.7699 77.8185 40.0327 78.3227 40.2386C78.8341 40.4517 79.4768 40.5582 80.251 40.5582C81.3447 40.5582 82.2503 40.2919 82.9676 39.7592C83.6849 39.2337 84.0436 38.3672 84.0436 37.1598V34.0597H83.8518C83.653 34.4574 83.3618 34.8658 82.9783 35.2848C82.6018 35.7038 82.1011 36.0554 81.4761 36.3395C80.8582 36.6236 80.0805 36.7656 79.143 36.7656C77.8859 36.7656 76.746 36.4709 75.7233 35.8814C74.7077 35.2848 73.898 34.397 73.2943 33.218C72.6977 32.032 72.3994 30.5476 72.3994 28.7649C72.3994 26.968 72.6977 25.4517 73.2943 24.2159C73.898 22.973 74.7112 22.032 75.7339 21.3928C76.7567 20.7464 77.8966 20.4233 79.1537 20.4233C80.1125 20.4233 80.9009 20.5866 81.5187 20.9134C82.1437 21.233 82.6409 21.62 83.0102 22.0746C83.3795 22.522 83.6601 22.9446 83.8518 23.3423H84.0649V20.6364H87.8682V37.2663C87.8682 38.6655 87.5344 39.8232 86.8668 40.7393C86.1991 41.6555 85.2865 42.3409 84.1288 42.7955C82.9712 43.25 81.6572 43.4773 80.1871 43.4773ZM80.219 33.7401C81.0358 33.7401 81.7318 33.5412 82.3071 33.1435C82.8824 32.7457 83.3192 32.174 83.6175 31.4283C83.9158 30.6825 84.0649 29.7876 84.0649 28.7436C84.0649 27.7138 83.9158 26.8118 83.6175 26.0376C83.3263 25.2635 82.893 24.6634 82.3178 24.2372C81.7496 23.804 81.05 23.5874 80.219 23.5874C79.3597 23.5874 78.6423 23.8111 78.067 24.2585C77.4918 24.706 77.0585 25.3203 76.7673 26.1016C76.4761 26.8757 76.3305 27.7564 76.3305 28.7436C76.3305 29.745 76.4761 30.6222 76.7673 31.375C77.0656 32.1207 77.5024 32.7031 78.0777 33.1222C78.6601 33.5341 79.3739 33.7401 80.219 33.7401ZM91.7661 37V15.1818H100.118C101.695 15.1818 103.005 15.4304 104.049 15.9276C105.101 16.4176 105.885 17.0888 106.404 17.9411C106.929 18.7933 107.192 19.7592 107.192 20.8388C107.192 21.7266 107.022 22.4865 106.681 23.1186C106.34 23.7436 105.882 24.2514 105.307 24.642C104.731 25.0327 104.088 25.3132 103.378 25.4837V25.6967C104.152 25.7393 104.895 25.9773 105.605 26.4105C106.322 26.8366 106.908 27.4403 107.363 28.2216C107.817 29.0028 108.044 29.9474 108.044 31.0554C108.044 32.1847 107.771 33.2003 107.224 34.1023C106.677 34.9972 105.853 35.7038 104.753 36.2223C103.652 36.7408 102.267 37 100.598 37H91.7661ZM95.7185 33.6974H99.9692C101.404 33.6974 102.437 33.424 103.069 32.8771C103.709 32.3232 104.028 31.6129 104.028 30.7464C104.028 30.1001 103.868 29.5178 103.549 28.9993C103.229 28.4737 102.775 28.0618 102.185 27.7635C101.596 27.4581 100.892 27.3054 100.076 27.3054H95.7185V33.6974ZM95.7185 24.4609H99.6283C100.31 24.4609 100.924 24.3366 101.471 24.0881C102.018 23.8324 102.448 23.4737 102.76 23.0121C103.08 22.5433 103.24 21.9893 103.24 21.3501C103.24 20.505 102.941 19.8089 102.345 19.2621C101.755 18.7152 100.878 18.4418 99.7135 18.4418H95.7185V24.4609ZM111.087 37V20.6364H114.827V23.3636H114.997C115.295 22.419 115.807 21.6911 116.531 21.1797C117.263 20.6612 118.097 20.402 119.035 20.402C119.248 20.402 119.486 20.4126 119.749 20.4339C120.019 20.4482 120.242 20.473 120.42 20.5085V24.0561C120.256 23.9993 119.997 23.9496 119.642 23.907C119.294 23.8572 118.957 23.8324 118.63 23.8324C117.927 23.8324 117.295 23.9851 116.734 24.2905C116.18 24.5888 115.743 25.0043 115.423 25.5369C115.104 26.0696 114.944 26.6839 114.944 27.38V37H111.087ZM127.173 37.3303C126.136 37.3303 125.202 37.1456 124.371 36.7763C123.547 36.3999 122.894 35.8459 122.411 35.1143C121.935 34.3828 121.697 33.4808 121.697 32.4084C121.697 31.4851 121.867 30.7216 122.208 30.1179C122.549 29.5142 123.014 29.0312 123.604 28.669C124.193 28.3068 124.857 28.0334 125.596 27.8487C126.342 27.657 127.112 27.5185 127.908 27.4332C128.867 27.3338 129.644 27.245 130.241 27.1669C130.838 27.0817 131.271 26.9538 131.541 26.7834C131.818 26.6058 131.956 26.3324 131.956 25.9631V25.8991C131.956 25.0966 131.718 24.4751 131.242 24.0348C130.767 23.5945 130.081 23.3743 129.186 23.3743C128.242 23.3743 127.492 23.5803 126.938 23.9922C126.392 24.4041 126.022 24.8906 125.83 25.4517L122.23 24.9403C122.514 23.946 122.982 23.1151 123.636 22.4474C124.289 21.7727 125.088 21.2685 126.033 20.9347C126.977 20.5938 128.021 20.4233 129.165 20.4233C129.953 20.4233 130.738 20.5156 131.519 20.7003C132.301 20.8849 133.014 21.1903 133.661 21.6165C134.307 22.0355 134.825 22.6072 135.216 23.3317C135.614 24.0561 135.813 24.9616 135.813 26.0483V37H132.105V34.7521H131.977C131.743 35.2067 131.413 35.6328 130.987 36.0305C130.568 36.4212 130.039 36.7372 129.399 36.9787C128.767 37.2131 128.025 37.3303 127.173 37.3303ZM128.174 34.4964C128.948 34.4964 129.619 34.3437 130.188 34.0384C130.756 33.7259 131.193 33.3139 131.498 32.8026C131.811 32.2912 131.967 31.7337 131.967 31.13V29.2017C131.846 29.3011 131.64 29.3935 131.349 29.4787C131.065 29.5639 130.745 29.6385 130.39 29.7024C130.035 29.7663 129.683 29.8232 129.335 29.8729C128.987 29.9226 128.686 29.9652 128.43 30.0007C127.855 30.0788 127.34 30.2067 126.885 30.3842C126.431 30.5618 126.072 30.8104 125.809 31.13C125.546 31.4425 125.415 31.8473 125.415 32.3445C125.415 33.0547 125.674 33.5909 126.193 33.9531C126.711 34.3153 127.372 34.4964 128.174 34.4964ZM139.466 37V20.6364H143.322V37H139.466ZM141.404 18.3139C140.794 18.3139 140.268 18.1115 139.828 17.7067C139.387 17.2947 139.167 16.8011 139.167 16.2259C139.167 15.6435 139.387 15.1499 139.828 14.745C140.268 14.3331 140.794 14.1271 141.404 14.1271C142.022 14.1271 142.548 14.3331 142.981 14.745C143.421 15.1499 143.642 15.6435 143.642 16.2259C143.642 16.8011 143.421 17.2947 142.981 17.7067C142.548 18.1115 142.022 18.3139 141.404 18.3139ZM150.919 27.4119V37H147.063V20.6364H150.749V23.4169H150.941C151.317 22.5007 151.917 21.7727 152.741 21.233C153.572 20.6932 154.598 20.4233 155.82 20.4233C156.949 20.4233 157.933 20.6648 158.771 21.1477C159.616 21.6307 160.269 22.3303 160.731 23.2464C161.2 24.1626 161.431 25.2741 161.424 26.581V37H157.567V27.1776C157.567 26.0838 157.283 25.228 156.715 24.6101C156.154 23.9922 155.376 23.6832 154.382 23.6832C153.707 23.6832 153.107 23.8324 152.581 24.1307C152.063 24.4219 151.654 24.8445 151.356 25.3984C151.065 25.9524 150.919 26.6236 150.919 27.4119Z" fill="black"/>
<path fill-rule="evenodd" clip-rule="evenodd" d="M13.3174 15.9627C13.3174 12.9693 15.744 10.5427 18.7374 10.5427C21.7309 10.5427 24.1575 12.9693 24.1575 15.9627V16.1253C24.996 12.9113 27.8769 10.5427 31.302 10.5427C35.3839 10.5427 38.693 13.9069 38.693 18.0569C38.693 22.2027 35.3906 25.5643 31.3143 25.571C35.3906 25.5781 38.693 29.105 38.693 33.4547C38.693 37.8088 35.3839 41.3385 31.302 41.3385C27.8769 41.3385 24.996 38.8534 24.1575 35.4813V35.9184C24.1575 38.9118 21.7309 41.3385 18.7374 41.3385C15.744 41.3385 13.3174 38.9118 13.3174 35.9184V15.9627ZM30.539 25.5315C30.6704 25.5144 30.8029 25.5007 30.9363 25.4906V25.447C27.0874 25.1541 24.0556 21.9383 24.0556 18.0143C24.0556 17.8214 24.0629 17.6302 24.0773 17.441H24.0335C24.0478 17.6302 24.0552 17.8214 24.0552 18.0143C24.0552 22.1313 20.7177 25.4688 16.6007 25.4688C16.4078 25.4688 16.2166 25.4615 16.0274 25.4471V25.4905C16.2166 25.4761 16.4078 25.4688 16.6007 25.4688C20.7177 25.4688 24.0552 28.8063 24.0552 32.9233C24.0552 33.1162 24.0478 33.3075 24.0334 33.4967H24.0773C24.0629 33.3075 24.0556 33.1162 24.0556 32.9233C24.0556 31.9578 24.2391 31.0352 24.5732 30.1884C25.7357 27.4682 28.3053 25.5762 31.2897 25.571C31.0363 25.5706 30.7859 25.5572 30.539 25.5315Z" fill="url(#paint0_linear_122_39)"/>
<defs>
<linearGradient id="paint0_linear_122_39" x1="29.4089" y1="33.2927" x2="20.1147" y2="15.6753" gradientUnits="userSpaceOnUse">
<stop stop-color="#6507FF"/>
<stop offset="1" stop-color="#0E60FF"/>
</linearGradient>
</defs>
</svg>